<mxfile host="app.diagrams.net" modified="2022-10-28T12:30:49.311Z" agent="5.0 (Windows)" etag="FJ3dKvQ_aQOc51bozs5_" version="20.5.1" type="github">
  <diagram id="WpRNOG8NA4DAABbzuD77" name="Seite-1">
    <mxGraphModel dx="1038" dy="528" grid="1" gridSize="10" guides="1" tooltips="1" connect="1" arrows="1" fold="1" page="1" pageScale="1" pageWidth="827" pageHeight="1169" math="0" shadow="0">
      <root>
        <mxCell id="0" />
        <mxCell id="1" parent="0" />
        <mxCell id="D7FlTBm71AQMMtoMiuut-6" value="" style="rounded=0;whiteSpace=wrap;html=1;" vertex="1" parent="1">
          <mxGeometry x="200" y="20" width="600" height="480" as="geometry" />
        </mxCell>
        <mxCell id="D7FlTBm71AQMMtoMiuut-7" value="Actor" style="shape=umlActor;verticalLabelPosition=bottom;verticalAlign=top;html=1;" vertex="1" parent="1">
          <mxGeometry x="70" y="190" width="70" height="140" as="geometry" />
        </mxCell>
        <mxCell id="D7FlTBm71AQMMtoMiuut-8" value="Anwendung öffnen" style="ellipse;whiteSpace=wrap;html=1;" vertex="1" parent="1">
          <mxGeometry x="290" y="60" width="140" height="70" as="geometry" />
        </mxCell>
        <mxCell id="D7FlTBm71AQMMtoMiuut-9" value="Menü" style="ellipse;whiteSpace=wrap;html=1;" vertex="1" parent="1">
          <mxGeometry x="290" y="160" width="140" height="70" as="geometry" />
        </mxCell>
        <mxCell id="D7FlTBm71AQMMtoMiuut-10" value="&lt;div&gt;Hintergrundfarbe &lt;br&gt;&lt;/div&gt;&lt;div&gt;ändern&lt;/div&gt;" style="ellipse;whiteSpace=wrap;html=1;" vertex="1" parent="1">
          <mxGeometry x="540" y="100" width="140" height="70" as="geometry" />
        </mxCell>
        <mxCell id="D7FlTBm71AQMMtoMiuut-11" value="&lt;div&gt;Kreisradius &lt;br&gt;&lt;/div&gt;&lt;div&gt;ändern&lt;/div&gt;" style="ellipse;whiteSpace=wrap;html=1;" vertex="1" parent="1">
          <mxGeometry x="540" y="220" width="140" height="70" as="geometry" />
        </mxCell>
        <mxCell id="D7FlTBm71AQMMtoMiuut-13" value="" style="endArrow=none;html=1;rounded=0;entryX=1;entryY=0;entryDx=0;entryDy=0;exitX=0;exitY=0;exitDx=0;exitDy=0;" edge="1" parent="1" source="D7FlTBm71AQMMtoMiuut-9" target="D7FlTBm71AQMMtoMiuut-9">
          <mxGeometry width="50" height="50" relative="1" as="geometry">
            <mxPoint x="390" y="310" as="sourcePoint" />
            <mxPoint x="440" y="260" as="targetPoint" />
          </mxGeometry>
        </mxCell>
        <mxCell id="D7FlTBm71AQMMtoMiuut-14" value="Kreise bearbeiten" style="ellipse;whiteSpace=wrap;html=1;" vertex="1" parent="1">
          <mxGeometry x="290" y="270" width="140" height="70" as="geometry" />
        </mxCell>
        <mxCell id="D7FlTBm71AQMMtoMiuut-16" value="Extends" style="endArrow=block;endSize=16;endFill=0;html=1;rounded=0;exitX=0;exitY=0.5;exitDx=0;exitDy=0;entryX=1;entryY=0.5;entryDx=0;entryDy=0;" edge="1" parent="1" source="D7FlTBm71AQMMtoMiuut-11" target="D7FlTBm71AQMMtoMiuut-9">
          <mxGeometry width="160" relative="1" as="geometry">
            <mxPoint x="330" y="280" as="sourcePoint" />
            <mxPoint x="490" y="280" as="targetPoint" />
          </mxGeometry>
        </mxCell>
        <mxCell id="D7FlTBm71AQMMtoMiuut-17" value="Extends" style="endArrow=block;endSize=16;endFill=0;html=1;rounded=0;exitX=0;exitY=0.5;exitDx=0;exitDy=0;entryX=1;entryY=0.5;entryDx=0;entryDy=0;" edge="1" parent="1" source="D7FlTBm71AQMMtoMiuut-10" target="D7FlTBm71AQMMtoMiuut-9">
          <mxGeometry width="160" relative="1" as="geometry">
            <mxPoint x="330" y="280" as="sourcePoint" />
            <mxPoint x="430" y="190" as="targetPoint" />
          </mxGeometry>
        </mxCell>
        <mxCell id="D7FlTBm71AQMMtoMiuut-19" value="" style="endArrow=none;html=1;rounded=0;exitX=1;exitY=0.3333333333333333;exitDx=0;exitDy=0;exitPerimeter=0;entryX=0;entryY=0.5;entryDx=0;entryDy=0;" edge="1" parent="1" source="D7FlTBm71AQMMtoMiuut-7" target="D7FlTBm71AQMMtoMiuut-8">
          <mxGeometry width="50" height="50" relative="1" as="geometry">
            <mxPoint x="390" y="310" as="sourcePoint" />
            <mxPoint x="440" y="260" as="targetPoint" />
          </mxGeometry>
        </mxCell>
        <mxCell id="D7FlTBm71AQMMtoMiuut-20" value="" style="endArrow=none;html=1;rounded=0;exitX=1;exitY=0.3333333333333333;exitDx=0;exitDy=0;exitPerimeter=0;entryX=0;entryY=0.5;entryDx=0;entryDy=0;" edge="1" parent="1" source="D7FlTBm71AQMMtoMiuut-7" target="D7FlTBm71AQMMtoMiuut-9">
          <mxGeometry width="50" height="50" relative="1" as="geometry">
            <mxPoint x="390" y="310" as="sourcePoint" />
            <mxPoint x="440" y="260" as="targetPoint" />
          </mxGeometry>
        </mxCell>
        <mxCell id="D7FlTBm71AQMMtoMiuut-21" value="" style="endArrow=none;html=1;rounded=0;exitX=1;exitY=0.3333333333333333;exitDx=0;exitDy=0;exitPerimeter=0;entryX=0;entryY=0.5;entryDx=0;entryDy=0;" edge="1" parent="1" source="D7FlTBm71AQMMtoMiuut-7" target="D7FlTBm71AQMMtoMiuut-14">
          <mxGeometry width="50" height="50" relative="1" as="geometry">
            <mxPoint x="390" y="310" as="sourcePoint" />
            <mxPoint x="440" y="260" as="targetPoint" />
          </mxGeometry>
        </mxCell>
      </root>
    </mxGraphModel>
  </diagram>
</mxfile>
